<svg xmlns="http://www.w3.org/2000/svg" viewBox="0 0 62.78 108.91"><defs><style>.cls-1{fill:#fff;}.cls-2{fill:#eea243;}.cls-3{fill:#042656;}</style></defs><title>Logo - Var 3</title><g id="Layer_2" data-name="Layer 2"><g id="Layer_1-2" data-name="Layer 1"><path class="cls-1" d="M17.54,79v3.31H16.18V79L13,73.5h1.47l2.43,4.27,2.46-4.27h1.38Z"/><path class="cls-1" d="M23.57,82.48a3.13,3.13,0,0,1-1.27-.26,3,3,0,0,1-1-.71,3.33,3.33,0,0,1-.67-1.08,3.89,3.89,0,0,1,0-2.69,3.33,3.33,0,0,1,.67-1.08,3,3,0,0,1,1-.71,3.13,3.13,0,0,1,1.27-.25,3.19,3.19,0,0,1,1.29.25,2.89,2.89,0,0,1,1,.71,3.33,3.33,0,0,1,.67,1.08,3.89,3.89,0,0,1,0,2.69,3.33,3.33,0,0,1-.67,1.08,2.89,2.89,0,0,1-1,.71A3.2,3.2,0,0,1,23.57,82.48Zm0-1.1a1.73,1.73,0,0,0,1-.28,1.78,1.78,0,0,0,.69-.79,2.77,2.77,0,0,0,.26-1.22,2.72,2.72,0,0,0-.26-1.23,1.75,1.75,0,0,0-.69-.78,1.73,1.73,0,0,0-1-.28,1.71,1.71,0,0,0-1,.28,1.75,1.75,0,0,0-.69.78,2.72,2.72,0,0,0-.26,1.23,2.77,2.77,0,0,0,.26,1.22,1.78,1.78,0,0,0,.69.79A1.71,1.71,0,0,0,23.57,81.38Z"/><path class="cls-1" d="M32.44,79.66V75.82h1.24v6.53H32.52v-1a2,2,0,0,1-.78.82,2.32,2.32,0,0,1-1.21.33,2.58,2.58,0,0,1-1.17-.26,1.82,1.82,0,0,1-.79-.81A3.16,3.16,0,0,1,28.3,80v-4.2h1.24v4A1.68,1.68,0,0,0,29.92,81a1.49,1.49,0,0,0,1.77.16,1.43,1.43,0,0,0,.54-.6A1.87,1.87,0,0,0,32.44,79.66Z"/><path class="cls-1" d="M37,78.67v3.68H35.72V75.82h1.16V76.9a2.65,2.65,0,0,1,.86-.87A2.3,2.3,0,0,1,39,75.7a2.16,2.16,0,0,1,1.62.62,2.47,2.47,0,0,1,.61,1.8v4.23H40V78.54a2,2,0,0,0-.36-1.29,1.25,1.25,0,0,0-1.06-.46,1.46,1.46,0,0,0-.79.23,1.58,1.58,0,0,0-.57.65A2.2,2.2,0,0,0,37,78.67Z"/><path class="cls-1" d="M45.76,84.87a3.67,3.67,0,0,1-1.49-.29,2.41,2.41,0,0,1-1-.83,2.48,2.48,0,0,1-.4-1.27h1.21a1.48,1.48,0,0,0,.48,1,1.8,1.8,0,0,0,1.19.36A1.67,1.67,0,0,0,47,83.44a1.74,1.74,0,0,0,.44-1.28V81a2.17,2.17,0,0,1-.81.91,2.12,2.12,0,0,1-1.19.34A2.54,2.54,0,0,1,44,81.8a2.89,2.89,0,0,1-1-1.16A3.82,3.82,0,0,1,42.68,79,4,4,0,0,1,43,77.24a2.65,2.65,0,0,1,1-1.14,2.54,2.54,0,0,1,1.43-.4,2.36,2.36,0,0,1,1.25.33,2.43,2.43,0,0,1,.87,1V75.82h1.16v6.31a2.62,2.62,0,0,1-.78,2A3.06,3.06,0,0,1,45.76,84.87ZM43.94,79a2.52,2.52,0,0,0,.47,1.6,1.55,1.55,0,0,0,1.28.58,1.62,1.62,0,0,0,1.55-1A2.71,2.71,0,0,0,47.47,79,2.52,2.52,0,0,0,47,77.37a1.59,1.59,0,0,0-1.3-.6,1.54,1.54,0,0,0-1.27.58A2.46,2.46,0,0,0,43.94,79Z"/><path class="cls-1" d="M16.83,95.57h-.89l1.57-8.85h4.86l-.15.78h-4L17.63,91h3.42l-.15.77H17.5Z"/><path class="cls-1" d="M23.73,92.08l-.61,3.49H22.3l1.15-6.49h.77l-.28,1.49a3.52,3.52,0,0,1,.69-.84,3.57,3.57,0,0,1,.92-.55,2.7,2.7,0,0,1,1.06-.2l-.15.87a2.64,2.64,0,0,0-2.21,1A2.93,2.93,0,0,0,23.73,92.08Z"/><path class="cls-1" d="M29.45,95.7a2.66,2.66,0,0,1-1.33-.34,2.52,2.52,0,0,1-.93-1A3,3,0,0,1,26.85,93a4.5,4.5,0,0,1,.45-2,3.54,3.54,0,0,1,1.21-1.43A3,3,0,0,1,30.23,89a2.18,2.18,0,0,1,2.24,1.73,4.19,4.19,0,0,1,0,1.84H27.37l.11-.59h4.27a2.43,2.43,0,0,0-.29-1.68,1.42,1.42,0,0,0-1.27-.63,2.08,2.08,0,0,0-1.29.44A3,3,0,0,0,28,91.26a4.24,4.24,0,0,0-.32,1.66,2.21,2.21,0,0,0,.5,1.52,1.69,1.69,0,0,0,1.33.55,2,2,0,0,0,2-1.61h.82a3.5,3.5,0,0,1-1.1,1.75A2.77,2.77,0,0,1,29.45,95.7Z"/><path class="cls-1" d="M36.19,95.7a2.67,2.67,0,0,1-1.34-.34,2.52,2.52,0,0,1-.93-1A3,3,0,0,1,33.58,93a4.5,4.5,0,0,1,.45-2,3.54,3.54,0,0,1,1.21-1.43A3,3,0,0,1,37,89a2.24,2.24,0,0,1,1.46.47,2.27,2.27,0,0,1,.79,1.26,4.2,4.2,0,0,1,0,1.84H34.1l.11-.59h4.27a2.49,2.49,0,0,0-.28-1.68,1.43,1.43,0,0,0-1.27-.63,2.08,2.08,0,0,0-1.3.44,3,3,0,0,0-.88,1.19,4.24,4.24,0,0,0-.32,1.66,2.21,2.21,0,0,0,.5,1.52,1.69,1.69,0,0,0,1.33.55,2,2,0,0,0,2-1.61h.83a3.58,3.58,0,0,1-1.11,1.75A2.76,2.76,0,0,1,36.19,95.7Z"/><path class="cls-1" d="M40.29,93.16a5.5,5.5,0,0,1,.25-1.66,4.34,4.34,0,0,1,.71-1.33,3.46,3.46,0,0,1,1.06-.9A2.82,2.82,0,0,1,43.62,89a2,2,0,0,1,1.24.41,1.92,1.92,0,0,1,.67,1.12l.67-3.76H47l-1.57,8.85h-.76l.26-1.44a3.22,3.22,0,0,1-1,1.15,2.44,2.44,0,0,1-1.36.42,2.13,2.13,0,0,1-1.19-.33,2,2,0,0,1-.78-.88A2.93,2.93,0,0,1,40.29,93.16Zm.84-.08a2,2,0,0,0,.43,1.38,1.52,1.52,0,0,0,1.2.5,1.93,1.93,0,0,0,1-.29,2.89,2.89,0,0,0,.81-.79,3.72,3.72,0,0,0,.52-1.1,4.36,4.36,0,0,0,.18-1.23,2.1,2.1,0,0,0-.43-1.37,1.52,1.52,0,0,0-1.21-.5,2,2,0,0,0-1.29.45,3.09,3.09,0,0,0-.91,1.22A4.34,4.34,0,0,0,41.13,93.08Z"/><path class="cls-1" d="M6.93,108.79H4.13V99.94h2.8a4.92,4.92,0,0,1,2.42.56,3.7,3.7,0,0,1,1.51,1.55,4.79,4.79,0,0,1,.52,2.28,4.89,4.89,0,0,1-.53,2.29,3.9,3.9,0,0,1-1.53,1.59A4.68,4.68,0,0,1,6.93,108.79Zm-1.44-7.68v6.51H6.87a3.39,3.39,0,0,0,1.72-.4,2.63,2.63,0,0,0,1.05-1.14,4,4,0,0,0,.36-1.75,3.8,3.8,0,0,0-.36-1.72,2.56,2.56,0,0,0-1.05-1.11,3.5,3.5,0,0,0-1.72-.39Z"/><path class="cls-1" d="M15.7,108.91a3.17,3.17,0,0,1-1.66-.42,2.93,2.93,0,0,1-1.11-1.2,4,4,0,0,1-.39-1.8,3.6,3.6,0,0,1,.41-1.73,3.1,3.1,0,0,1,1.11-1.19,3,3,0,0,1,1.6-.44,3.12,3.12,0,0,1,1.32.28,2.85,2.85,0,0,1,1,.78,3,3,0,0,1,.6,1.17,3.94,3.94,0,0,1,.1,1.47H13.27V105h4.09a2.16,2.16,0,0,0-.5-1.43,1.58,1.58,0,0,0-1.22-.51,1.64,1.64,0,0,0-1,.29,1.81,1.81,0,0,0-.64.83,3.15,3.15,0,0,0-.23,1.3A3.42,3.42,0,0,0,14,106.8a1.87,1.87,0,0,0,.64.85,1.77,1.77,0,0,0,1,.29,1.85,1.85,0,0,0,1.17-.36,1.71,1.71,0,0,0,.61-1h1.23a2.84,2.84,0,0,1-1,1.71A3,3,0,0,1,15.7,108.91Z"/><path class="cls-1" d="M21.56,108.79H20.31V99.94h1.25Z"/><path class="cls-1" d="M25.12,100.74a.79.79,0,0,1-.26.59,1,1,0,0,1-1.3,0,.79.79,0,0,1-.26-.59.76.76,0,0,1,.26-.6,1.07,1.07,0,0,1,1.3,0A.76.76,0,0,1,25.12,100.74Zm-.28,8.05H23.6v-6.53h1.24Z"/><path class="cls-1" d="M32.3,102.26l-2.45,6.53H28.49L26,102.26h1.34l1.82,5.1,1.83-5.1Z"/><path class="cls-1" d="M35.94,108.91a3.2,3.2,0,0,1-1.66-.42,2.85,2.85,0,0,1-1.1-1.2,4,4,0,0,1-.4-1.8,3.6,3.6,0,0,1,.41-1.73,3.1,3.1,0,0,1,1.11-1.19,3,3,0,0,1,1.6-.44,3.13,3.13,0,0,1,1.33.28,3,3,0,0,1,1,.78,3.08,3.08,0,0,1,.59,1.17,3.74,3.74,0,0,1,.1,1.47H33.51V105H37.6a2.16,2.16,0,0,0-.5-1.43,1.55,1.55,0,0,0-1.22-.51,1.68,1.68,0,0,0-1,.29,1.88,1.88,0,0,0-.64.83,3.32,3.32,0,0,0-.23,1.3,3.42,3.42,0,0,0,.22,1.31,1.87,1.87,0,0,0,.64.85,1.78,1.78,0,0,0,1,.29,1.84,1.84,0,0,0,1.16-.36,1.66,1.66,0,0,0,.61-1h1.23a2.8,2.8,0,0,1-1,1.71A3,3,0,0,1,35.94,108.91Z"/><path class="cls-1" d="M41.8,105.45v3.34H40.55v-6.53h1.16v1.38a2.53,2.53,0,0,1,1-1.07,2.84,2.84,0,0,1,1.48-.4v1.3a3.14,3.14,0,0,0-1.25.16,1.74,1.74,0,0,0-.86.64A2,2,0,0,0,41.8,105.45Z"/><path class="cls-1" d="M48.18,108.91a3.23,3.23,0,0,1-1.66-.42,2.85,2.85,0,0,1-1.1-1.2,4,4,0,0,1-.39-1.8,3.59,3.59,0,0,1,.4-1.73,3.1,3.1,0,0,1,1.11-1.19,3,3,0,0,1,1.6-.44,3.13,3.13,0,0,1,1.33.28,3,3,0,0,1,1,.78,3.25,3.25,0,0,1,.6,1.17,4.16,4.16,0,0,1,.1,1.47H45.75V105h4.1a2.22,2.22,0,0,0-.5-1.43,1.58,1.58,0,0,0-1.23-.51,1.68,1.68,0,0,0-1,.29,1.88,1.88,0,0,0-.64.83,3.32,3.32,0,0,0-.23,1.3,3.41,3.41,0,0,0,.23,1.31,1.8,1.8,0,0,0,.64.85,1.74,1.74,0,0,0,1,.29,1.83,1.83,0,0,0,1.16-.36,1.66,1.66,0,0,0,.61-1h1.24a2.84,2.84,0,0,1-1,1.71A3.06,3.06,0,0,1,48.18,108.91Z"/><path class="cls-1" d="M52.2,105.53a4.1,4.1,0,0,1,.36-1.76,2.72,2.72,0,0,1,1-1.2,2.67,2.67,0,0,1,1.53-.44,2.31,2.31,0,0,1,1.2.33,2.54,2.54,0,0,1,.89.92V99.94h1.25v8.85H57.28v-1.17a2.57,2.57,0,0,1-.92,1,2.47,2.47,0,0,1-1.26.33,2.67,2.67,0,0,1-1.53-.43,2.87,2.87,0,0,1-1-1.21A4.07,4.07,0,0,1,52.2,105.53Zm1.3,0a2.48,2.48,0,0,0,.51,1.68,1.69,1.69,0,0,0,1.33.6,1.72,1.72,0,0,0,1-.28,1.86,1.86,0,0,0,.65-.8,2.87,2.87,0,0,0,.24-1.23,2.84,2.84,0,0,0-.24-1.23,1.82,1.82,0,0,0-.67-.77,1.79,1.79,0,0,0-2.27.32A2.57,2.57,0,0,0,53.5,105.53Z"/><rect class="cls-2" width="62.78" height="62.78" rx="5.79"/><path class="cls-3" d="M31.08,32.16c-1.47,0-2.63-2.57-3.08-3.92-1.52-4.55-1.62-4.57-4.28-4.9a32.92,32.92,0,0,1-8.64-2.15A4,4,0,0,1,13,15.69h0a1.07,1.07,0,0,1,1.41-.49,29,29,0,0,0,10,3c3.16.4,4.95,1.07,6.47,3.54a1.06,1.06,0,0,0,1.9-.18c1.94-5.17,5.16-11.77,11.34-13.67a2.54,2.54,0,0,1,3.24,2.36v.06a2.66,2.66,0,0,1-1.88,2.62c-4.41,1.49-6.79,7.36-8.83,13.33C35.34,30,33.64,32.16,31.08,32.16Z"/><path class="cls-3" d="M33.86,55h-.08a2.57,2.57,0,0,1-2.56-2.57s-3.54-15.76,0-16.4c0,0,7.17,0,9.65-12.06a8.71,8.71,0,0,1,6.2-6.82,2.57,2.57,0,0,1,3.2,2.65h0a2.55,2.55,0,0,1-1.89,2.32,2.29,2.29,0,0,0-1.76,1.26c-.22.65-.53,1.49-.88,2.42-.51,1.36-1.08,2.9-1.45,4.17a16.2,16.2,0,0,1-6.72,9.42,2.58,2.58,0,0,0-1.12,2.12V52.46A2.57,2.57,0,0,1,33.86,55Z"/></g></g></svg>