<svg xmlns="http://www.w3.org/2000/svg" viewBox="0 0 186.08 186.08"><defs><style>.cls-1{fill:#042656;}.cls-2{fill:#eea243;}</style></defs><title>Icon -var</title><g id="Layer_2" data-name="Layer 2"><g id="Layer_1-2" data-name="Layer 1"><rect class="cls-1" width="186.08" height="186.08" rx="17.15"/><path class="cls-2" d="M92.13,95.33c-4.37,0-7.79-7.61-9.13-11.62-4.5-13.5-4.81-13.54-12.68-14.53A96.5,96.5,0,0,1,44.71,62.8a11.82,11.82,0,0,1-6.33-16.29h0a3.17,3.17,0,0,1,4.19-1.46c14.54,6.9,23.23,8,29.68,8.81C81.61,55,86.93,57,91.44,64.34a3.15,3.15,0,0,0,5.64-.51c5.74-15.33,15.28-34.89,33.59-40.53a7.53,7.53,0,0,1,9.61,7v.19a7.9,7.9,0,0,1-5.56,7.75c-13.1,4.42-20.13,21.81-26.2,39.51C104.75,88.79,99.72,95.33,92.13,95.33Z"/><path class="cls-2" d="M100.37,163.1h-.24a7.61,7.61,0,0,1-7.6-7.6s-10.47-46.72,0-48.63c0,0,21.25,0,28.58-35.72,1.16-5.64,5.67-17,18.38-20.23a7.61,7.61,0,0,1,9.49,7.87h0a7.55,7.55,0,0,1-5.58,6.86c-2.27.56-4.56,1.66-5.24,3.74-.63,1.93-1.56,4.43-2.59,7.16-1.5,4-3.21,8.61-4.3,12.36-4.47,15.43-12.71,22.91-19.93,27.94a7.67,7.67,0,0,0-3.32,6.28V155.5A7.6,7.6,0,0,1,100.37,163.1Z"/></g></g></svg>