<svg xmlns="http://www.w3.org/2000/svg" viewBox="0 0 159.69 67.41"><defs><style>.cls-1{fill:#042656;}.cls-2{fill:#eea243;}</style></defs><title>Logo - Main</title><g id="Layer_2" data-name="Layer 2"><g id="Layer_1-2" data-name="Layer 1"><path class="cls-1" d="M90.24,13.8v4.55H88.36V13.8L84,6.21h2l3.33,5.85,3.36-5.85h1.9Z"/><path class="cls-1" d="M98.51,18.52a4.37,4.37,0,0,1-1.75-.34,4.17,4.17,0,0,1-1.4-1,4.79,4.79,0,0,1-.92-1.48,5.07,5.07,0,0,1-.33-1.85A5,5,0,0,1,94.44,12a4.57,4.57,0,0,1,.92-1.48,4.17,4.17,0,0,1,1.4-1,4.37,4.37,0,0,1,1.75-.35,4.47,4.47,0,0,1,1.77.35,4.09,4.09,0,0,1,1.38,1,4.57,4.57,0,0,1,.92,1.48,5,5,0,0,1,.33,1.84,5.07,5.07,0,0,1-.33,1.85,4.79,4.79,0,0,1-.92,1.48,4.09,4.09,0,0,1-1.38,1A4.47,4.47,0,0,1,98.51,18.52Zm0-1.5a2.49,2.49,0,0,0,1.34-.38,2.67,2.67,0,0,0,1-1.09,3.85,3.85,0,0,0,.35-1.68,3.79,3.79,0,0,0-.35-1.68,2.47,2.47,0,0,0-2.29-1.45,2.54,2.54,0,0,0-1.33.37,2.58,2.58,0,0,0-1,1.08,3.79,3.79,0,0,0-.34,1.68,3.85,3.85,0,0,0,.34,1.68,2.67,2.67,0,0,0,1,1.09A2.46,2.46,0,0,0,98.51,17Z"/><path class="cls-1" d="M110.67,14.67V9.39h1.71v9h-1.59V17a2.76,2.76,0,0,1-1.08,1.12,3.16,3.16,0,0,1-1.66.45,3.58,3.58,0,0,1-1.6-.35,2.42,2.42,0,0,1-1.08-1.11,4.12,4.12,0,0,1-.38-1.9V9.39h1.71v5.43a2.27,2.27,0,0,0,.52,1.68,1.85,1.85,0,0,0,1.37.52,1.94,1.94,0,0,0,1-.3,2.09,2.09,0,0,0,.75-.83A2.53,2.53,0,0,0,110.67,14.67Z"/><path class="cls-1" d="M116.88,13.3v5.05h-1.71v-9h1.59v1.49A3.5,3.5,0,0,1,118,9.68a3.06,3.06,0,0,1,1.67-.46,3,3,0,0,1,2.22.86,3.41,3.41,0,0,1,.84,2.47v5.8H121V13.13a2.81,2.81,0,0,0-.49-1.78,1.72,1.72,0,0,0-1.45-.62,2,2,0,0,0-1.09.31,2.27,2.27,0,0,0-.78.89A3,3,0,0,0,116.88,13.3Z"/><path class="cls-1" d="M129,21.8a5,5,0,0,1-2-.39,3.25,3.25,0,0,1-1.38-1.14,3.39,3.39,0,0,1-.55-1.75h1.66a2,2,0,0,0,.67,1.43,2.43,2.43,0,0,0,1.63.5,2.38,2.38,0,0,0,1.76-.6,2.44,2.44,0,0,0,.59-1.77V16.46a3,3,0,0,1-1.11,1.25,2.93,2.93,0,0,1-1.63.46,3.42,3.42,0,0,1-2-.58A3.77,3.77,0,0,1,125.22,16a5.19,5.19,0,0,1-.49-2.31,5.39,5.39,0,0,1,.47-2.35,3.64,3.64,0,0,1,1.33-1.56,3.52,3.52,0,0,1,2-.56,3.17,3.17,0,0,1,1.71.46,3.44,3.44,0,0,1,1.2,1.3V9.39H133v8.66a3.61,3.61,0,0,1-1.07,2.77A4.2,4.2,0,0,1,129,21.8Zm-2.5-8.11a3.42,3.42,0,0,0,.64,2.19,2.15,2.15,0,0,0,1.76.8,2.28,2.28,0,0,0,1.28-.36,2.38,2.38,0,0,0,.85-1,3.56,3.56,0,0,0,.31-1.54,3.45,3.45,0,0,0-.66-2.22,2.32,2.32,0,0,0-3.53,0A3.43,3.43,0,0,0,126.45,13.69Z"/><path class="cls-1" d="M85.67,38.91H84.45L86.6,26.76h6.66l-.2,1.07H87.61l-.84,4.78h4.68l-.2,1.07H86.58Z"/><path class="cls-1" d="M95.14,34.12l-.84,4.79H93.18L94.75,30h1L95.43,32a4.37,4.37,0,0,1,.95-1.14,4.32,4.32,0,0,1,1.25-.76,3.78,3.78,0,0,1,1.45-.28l-.2,1.2a3.48,3.48,0,0,0-1.69.32,3.6,3.6,0,0,0-1.34,1.08A3.81,3.81,0,0,0,95.14,34.12Z"/><path class="cls-1" d="M103,39.08a3.56,3.56,0,0,1-1.83-.47,3.34,3.34,0,0,1-1.27-1.31,4,4,0,0,1-.47-2,6.22,6.22,0,0,1,.61-2.8,4.94,4.94,0,0,1,1.67-2,4.08,4.08,0,0,1,2.36-.72,3,3,0,0,1,2,.64,3.19,3.19,0,0,1,1.07,1.73,5.59,5.59,0,0,1,0,2.52h-7l.15-.81h5.86a3.36,3.36,0,0,0-.39-2.3,2,2,0,0,0-1.74-.87,2.84,2.84,0,0,0-1.78.61A4,4,0,0,0,101,33a5.83,5.83,0,0,0-.43,2.28,3,3,0,0,0,.68,2.08,2.29,2.29,0,0,0,1.82.76,2.79,2.79,0,0,0,2.69-2.21h1.13a4.73,4.73,0,0,1-1.52,2.4A3.76,3.76,0,0,1,103,39.08Z"/><path class="cls-1" d="M112.23,39.08a3.62,3.62,0,0,1-1.84-.47,3.4,3.4,0,0,1-1.27-1.31,4,4,0,0,1-.46-2,6.22,6.22,0,0,1,.61-2.8,4.91,4.91,0,0,1,1.66-2,4.11,4.11,0,0,1,2.36-.72,3.08,3.08,0,0,1,2,.64,3.19,3.19,0,0,1,1.07,1.73,5.74,5.74,0,0,1,0,2.52h-7l.15-.81h5.85a3.25,3.25,0,0,0-.39-2.3,1.94,1.94,0,0,0-1.74-.87,2.84,2.84,0,0,0-1.78.61,4,4,0,0,0-1.2,1.63,5.83,5.83,0,0,0-.44,2.28,3,3,0,0,0,.68,2.08,2.31,2.31,0,0,0,1.83.76A2.8,2.8,0,0,0,115,35.9h1.13a4.87,4.87,0,0,1-1.52,2.4A3.8,3.8,0,0,1,112.23,39.08Z"/><path class="cls-1" d="M117.86,35.59a7.25,7.25,0,0,1,.34-2.27,6.05,6.05,0,0,1,1-1.83,4.71,4.71,0,0,1,1.45-1.23,3.8,3.8,0,0,1,1.8-.44,2.56,2.56,0,0,1,2.62,2.1l.91-5.16h1.12l-2.15,12.15h-1.05l.36-2a4.53,4.53,0,0,1-1.43,1.57,3.38,3.38,0,0,1-1.87.58,3,3,0,0,1-1.63-.44,3,3,0,0,1-1.07-1.22A4.18,4.18,0,0,1,117.86,35.59Zm1.15-.1a2.8,2.8,0,0,0,.59,1.89,2,2,0,0,0,1.64.68,2.61,2.61,0,0,0,1.42-.4,3.64,3.64,0,0,0,1.11-1.07,5.24,5.24,0,0,0,.71-1.51,6.12,6.12,0,0,0,.25-1.69,2.75,2.75,0,0,0-.6-1.87,2,2,0,0,0-1.65-.7,2.79,2.79,0,0,0-1.77.62,4.1,4.1,0,0,0-1.24,1.67A5.88,5.88,0,0,0,119,35.49Z"/><path class="cls-1" d="M89,59.46H85.18V47.32H89a6.67,6.67,0,0,1,3.31.76,5.14,5.14,0,0,1,2.08,2.13,6.54,6.54,0,0,1,.72,3.13,6.63,6.63,0,0,1-.73,3.13,5.48,5.48,0,0,1-2.11,2.19A6.44,6.44,0,0,1,89,59.46ZM87,48.92v8.93h1.89a4.61,4.61,0,0,0,2.36-.55,3.53,3.53,0,0,0,1.45-1.56,5.44,5.44,0,0,0,.49-2.4A5.2,5.2,0,0,0,92.74,51a3.51,3.51,0,0,0-1.45-1.53,4.82,4.82,0,0,0-2.36-.53Z"/><path class="cls-1" d="M101,59.63a4.43,4.43,0,0,1-2.27-.58,4,4,0,0,1-1.51-1.65,5.41,5.41,0,0,1-.55-2.47,4.94,4.94,0,0,1,.56-2.37,4.29,4.29,0,0,1,1.53-1.63,4,4,0,0,1,2.19-.6,4.09,4.09,0,0,1,1.82.38,4,4,0,0,1,1.37,1.06,4.24,4.24,0,0,1,.82,1.61,5.34,5.34,0,0,1,.14,2H97.71V54.27h5.62a3,3,0,0,0-.69-2,2.17,2.17,0,0,0-1.68-.7,2.23,2.23,0,0,0-1.33.4,2.53,2.53,0,0,0-.88,1.13,4.55,4.55,0,0,0-.31,1.79,4.84,4.84,0,0,0,.3,1.8,2.62,2.62,0,0,0,.88,1.16,2.37,2.37,0,0,0,1.39.4,2.52,2.52,0,0,0,1.6-.49,2.33,2.33,0,0,0,.84-1.37h1.69a4,4,0,0,1-1.41,2.35A4.28,4.28,0,0,1,101,59.63Z"/><path class="cls-1" d="M109.1,59.46h-1.73V47.32h1.73Z"/><path class="cls-1" d="M114,48.41a1.08,1.08,0,0,1-.35.81,1.38,1.38,0,0,1-1.79,0,1.12,1.12,0,0,1,0-1.63,1.45,1.45,0,0,1,1.79,0A1.07,1.07,0,0,1,114,48.41Zm-.37,11.05h-1.71v-9h1.71Z"/><path class="cls-1" d="M123.83,50.49l-3.37,9H118.6l-3.36-9h1.84l2.49,7,2.52-7Z"/><path class="cls-1" d="M128.82,59.63a4.44,4.44,0,0,1-2.28-.58A4,4,0,0,1,125,57.4a5.41,5.41,0,0,1-.54-2.47,4.83,4.83,0,0,1,.56-2.37,4.26,4.26,0,0,1,1.52-1.63,4.06,4.06,0,0,1,2.2-.6,4.15,4.15,0,0,1,1.82.38A4,4,0,0,1,132,51.77a4.38,4.38,0,0,1,.82,1.61,5.35,5.35,0,0,1,.13,2h-7.42V54.27h5.61a3,3,0,0,0-.68-2,2.38,2.38,0,0,0-3-.3,2.53,2.53,0,0,0-.88,1.13,4.55,4.55,0,0,0-.32,1.79,4.84,4.84,0,0,0,.31,1.8,2.49,2.49,0,0,0,.88,1.16,2.32,2.32,0,0,0,1.38.4,2.5,2.5,0,0,0,1.6-.49,2.29,2.29,0,0,0,.84-1.37h1.69a3.9,3.9,0,0,1-1.41,2.35A4.27,4.27,0,0,1,128.82,59.63Z"/><path class="cls-1" d="M136.85,54.88v4.58h-1.71v-9h1.6v1.9a3.44,3.44,0,0,1,1.41-1.47,4,4,0,0,1,2-.54v1.77a4.44,4.44,0,0,0-1.72.22,2.43,2.43,0,0,0-1.19.89A2.82,2.82,0,0,0,136.85,54.88Z"/><path class="cls-1" d="M145.61,59.63a4.43,4.43,0,0,1-2.27-.58,4,4,0,0,1-1.51-1.65,5.29,5.29,0,0,1-.55-2.47,4.94,4.94,0,0,1,.56-2.37,4.26,4.26,0,0,1,1.52-1.63,4.43,4.43,0,0,1,4-.22,4,4,0,0,1,1.37,1.06,4.24,4.24,0,0,1,.82,1.61,5.34,5.34,0,0,1,.14,2h-7.43V54.27h5.62a3,3,0,0,0-.69-2,2.17,2.17,0,0,0-1.68-.7,2.23,2.23,0,0,0-1.33.4,2.53,2.53,0,0,0-.88,1.13,4.55,4.55,0,0,0-.31,1.79,4.84,4.84,0,0,0,.3,1.8,2.62,2.62,0,0,0,.88,1.16,2.37,2.37,0,0,0,1.39.4,2.52,2.52,0,0,0,1.6-.49,2.33,2.33,0,0,0,.84-1.37h1.69a4,4,0,0,1-1.41,2.35A4.3,4.3,0,0,1,145.61,59.63Z"/><path class="cls-1" d="M151.13,55a5.58,5.58,0,0,1,.49-2.41A3.84,3.84,0,0,1,153,50.92a3.64,3.64,0,0,1,2.09-.59,3.23,3.23,0,0,1,1.65.44A3.54,3.54,0,0,1,158,52V47.32h1.71V59.46H158.1V57.85a3.45,3.45,0,0,1-1.26,1.31,3.36,3.36,0,0,1-1.74.47A3.64,3.64,0,0,1,153,59a3.92,3.92,0,0,1-1.39-1.66A5.55,5.55,0,0,1,151.13,55Zm1.78,0a3.41,3.41,0,0,0,.7,2.31,2.45,2.45,0,0,0,3.14.44,2.6,2.6,0,0,0,.9-1.1,4,4,0,0,0,.33-1.69,3.77,3.77,0,0,0-.34-1.69,2.48,2.48,0,0,0-.91-1,2.31,2.31,0,0,0-1.29-.37,2.34,2.34,0,0,0-1.83.81A3.46,3.46,0,0,0,152.91,55Z"/><rect class="cls-2" width="67.41" height="67.41" rx="6.21"/><path class="cls-1" d="M33.38,34.54c-1.59,0-2.83-2.76-3.31-4.21-1.63-4.89-1.74-4.91-4.59-5.27a34.73,34.73,0,0,1-9.28-2.31,4.28,4.28,0,0,1-2.3-5.9h0a1.15,1.15,0,0,1,1.52-.53,31.22,31.22,0,0,0,10.75,3.19c3.4.43,5.32,1.15,7,3.8a1.14,1.14,0,0,0,2-.19c2.08-5.55,5.54-12.64,12.17-14.68A2.73,2.73,0,0,1,50.82,11V11a2.86,2.86,0,0,1-2,2.81c-4.75,1.6-7.29,7.9-9.49,14.31C38,32.17,36.12,34.54,33.38,34.54Z"/><path class="cls-1" d="M36.36,59.09h-.08a2.77,2.77,0,0,1-2.76-2.76s-3.79-16.92,0-17.61c0,0,7.7,0,10.36-12.95a9.35,9.35,0,0,1,6.66-7.32A2.74,2.74,0,0,1,54,21.3h0a2.72,2.72,0,0,1-2,2.48A2.48,2.48,0,0,0,50,25.14c-.22.7-.56,1.6-.93,2.59-.55,1.46-1.17,3.12-1.56,4.48a17.39,17.39,0,0,1-7.22,10.12,2.78,2.78,0,0,0-1.2,2.28V56.33A2.77,2.77,0,0,1,36.36,59.09Z"/></g></g></svg>