<svg xmlns="http://www.w3.org/2000/svg" viewBox="0 0 499.75 62.86"><defs><style>.cls-1{fill:#eea243;}</style></defs><title>Pattern</title><g id="Layer_2" data-name="Layer 2"><g id="Layer_1-2" data-name="Layer 1"><path class="cls-1" d="M.64,1.38A25.52,25.52,0,0,0,9.41,4c2.77.35,4.34.93,5.68,3.1a.93.93,0,0,0,1.66-.15A31.46,31.46,0,0,1,20.23,0H2.87A2.86,2.86,0,0,0,.46,1.31Z"/><path class="cls-1" d="M30.43,7.46a2,2,0,0,0-1.55,1.11c-.19.57-.46,1.31-.76,2.12-.45,1.19-.95,2.54-1.28,3.65A14.17,14.17,0,0,1,21,22.6a2.25,2.25,0,0,0-1,1.85v6.67h8.28a2.88,2.88,0,0,0,2.87-2.87V7.15A2.15,2.15,0,0,1,30.43,7.46Z"/><path class="cls-1" d="M15.4,19.65s6.27,0,8.44-10.56a7.64,7.64,0,0,1,5.44-6,2.26,2.26,0,0,1,1.84.33V2.87A2.87,2.87,0,0,0,28.25,0h-1.7c-3,1.92-4.84,6.44-6.41,11-1.12,3.26-2.61,5.2-4.85,5.2C14,16.24,13,14,12.59,12.8c-1.33-4-1.42-4-3.75-4.29A28.86,28.86,0,0,1,1.27,6.62,3.42,3.42,0,0,1,0,5.77V28.25a2.87,2.87,0,0,0,2.87,2.87h12C14.12,27,13.22,20.05,15.4,19.65Z"/><path class="cls-1" d="M61.6,1.38A25.5,25.5,0,0,1,52.82,4c-2.77.35-4.34.93-5.67,3.1a.94.94,0,0,1-1.67-.15A31,31,0,0,0,42,0H59.37a2.88,2.88,0,0,1,2.41,1.31Z"/><path class="cls-1" d="M31.81,7.46a2,2,0,0,1,1.55,1.11c.18.57.46,1.31.76,2.12.45,1.19,1,2.54,1.27,3.65a14.25,14.25,0,0,0,5.89,8.26,2.25,2.25,0,0,1,1,1.85v6.67H34a2.87,2.87,0,0,1-2.87-2.87V7.15A2,2,0,0,0,31.81,7.46Z"/><path class="cls-1" d="M46.84,19.65s-6.28,0-8.45-10.56a7.62,7.62,0,0,0-5.43-6,2.26,2.26,0,0,0-1.84.33V2.87A2.86,2.86,0,0,1,34,0h1.7c3,1.92,4.83,6.44,6.41,11,1.12,3.26,2.6,5.2,4.85,5.2,1.29,0,2.3-2.25,2.7-3.44,1.33-4,1.42-4,3.74-4.29A28.68,28.68,0,0,0,61,6.62a3.55,3.55,0,0,0,1.28-.85V28.25a2.88,2.88,0,0,1-2.87,2.87h-12C48.12,27,49,20.05,46.84,19.65Z"/><path class="cls-1" d="M63,1.38A25.5,25.5,0,0,0,71.82,4c2.77.35,4.34.93,5.67,3.1a.94.94,0,0,0,1.67-.15A31,31,0,0,1,82.63,0H65.27a2.86,2.86,0,0,0-2.41,1.31Z"/><path class="cls-1" d="M92.83,7.46a2,2,0,0,0-1.55,1.11c-.18.57-.46,1.31-.76,2.12-.45,1.19-1,2.54-1.27,3.65a14.25,14.25,0,0,1-5.89,8.26,2.25,2.25,0,0,0-1,1.85v6.67h8.27a2.87,2.87,0,0,0,2.87-2.87V7.15A2.06,2.06,0,0,1,92.83,7.46Z"/><path class="cls-1" d="M77.8,19.65s6.28,0,8.45-10.56a7.62,7.62,0,0,1,5.43-6,2.26,2.26,0,0,1,1.84.33V2.87A2.86,2.86,0,0,0,90.65,0H89c-3,1.92-4.83,6.44-6.41,11-1.12,3.26-2.6,5.2-4.85,5.2-1.29,0-2.3-2.25-2.7-3.44-1.33-4-1.42-4-3.74-4.29a28.68,28.68,0,0,1-7.57-1.89,3.55,3.55,0,0,1-1.28-.85V28.25a2.88,2.88,0,0,0,2.87,2.87h12C76.52,27,75.62,20.05,77.8,19.65Z"/><path class="cls-1" d="M124,1.38A25.52,25.52,0,0,1,115.23,4c-2.77.35-4.34.93-5.68,3.1a.94.94,0,0,1-1.67-.15A31,31,0,0,0,104.41,0h17.36a2.86,2.86,0,0,1,2.41,1.31Z"/><path class="cls-1" d="M94.21,7.46a2,2,0,0,1,1.55,1.11c.19.57.46,1.31.76,2.12.45,1.19,1,2.54,1.28,3.65a14.17,14.17,0,0,0,5.89,8.26,2.25,2.25,0,0,1,1,1.85v6.67H96.39a2.88,2.88,0,0,1-2.87-2.87V7.15A2.15,2.15,0,0,0,94.21,7.46Z"/><path class="cls-1" d="M109.24,19.65s-6.28,0-8.44-10.56a7.66,7.66,0,0,0-5.44-6,2.26,2.26,0,0,0-1.84.33V2.87A2.87,2.87,0,0,1,96.39,0h1.7c3,1.92,4.84,6.44,6.41,11,1.12,3.26,2.61,5.2,4.85,5.2,1.29,0,2.3-2.25,2.7-3.44,1.33-4,1.42-4,3.75-4.29a28.86,28.86,0,0,0,7.57-1.89,3.51,3.51,0,0,0,1.27-.85V28.25a2.87,2.87,0,0,1-2.87,2.87h-12C110.52,27,111.42,20.05,109.24,19.65Z"/><path class="cls-1" d="M125.28,1.38A25.52,25.52,0,0,0,134.05,4c2.77.35,4.34.93,5.68,3.1a.93.93,0,0,0,1.66-.15A31.46,31.46,0,0,1,144.87,0H127.51a2.86,2.86,0,0,0-2.41,1.31Z"/><path class="cls-1" d="M155.07,7.46a2,2,0,0,0-1.55,1.11c-.19.57-.46,1.31-.76,2.12-.45,1.19-.95,2.54-1.28,3.65a14.17,14.17,0,0,1-5.89,8.26,2.25,2.25,0,0,0-1,1.85v6.67h8.28a2.88,2.88,0,0,0,2.87-2.87V7.15A2.15,2.15,0,0,1,155.07,7.46Z"/><path class="cls-1" d="M140,19.65s6.27,0,8.44-10.56a7.64,7.64,0,0,1,5.44-6,2.26,2.26,0,0,1,1.84.33V2.87A2.87,2.87,0,0,0,152.89,0h-1.7c-3,1.92-4.84,6.44-6.41,11-1.12,3.26-2.61,5.2-4.85,5.2-1.29,0-2.3-2.25-2.7-3.44-1.33-4-1.42-4-3.75-4.29a28.86,28.86,0,0,1-7.57-1.89,3.42,3.42,0,0,1-1.27-.85V28.25a2.87,2.87,0,0,0,2.87,2.87h12C138.76,27,137.86,20.05,140,19.65Z"/><path class="cls-1" d="M186.24,1.38A25.5,25.5,0,0,1,177.46,4c-2.77.35-4.34.93-5.67,3.1a.94.94,0,0,1-1.67-.15A31,31,0,0,0,166.65,0H184a2.88,2.88,0,0,1,2.41,1.31A.75.75,0,0,0,186.24,1.38Z"/><path class="cls-1" d="M156.45,7.46A2,2,0,0,1,158,8.57c.18.57.46,1.31.76,2.12.45,1.19,1,2.54,1.27,3.65a14.21,14.21,0,0,0,5.89,8.26,2.25,2.25,0,0,1,1,1.85v6.67h-8.27a2.87,2.87,0,0,1-2.87-2.87V7.15A2,2,0,0,0,156.45,7.46Z"/><path class="cls-1" d="M171.48,19.65s-6.28,0-8.45-10.56a7.62,7.62,0,0,0-5.43-6,2.26,2.26,0,0,0-1.84.33V2.87A2.86,2.86,0,0,1,158.63,0h1.7c3,1.92,4.83,6.44,6.41,11,1.12,3.26,2.6,5.2,4.85,5.2,1.29,0,2.3-2.25,2.69-3.44,1.34-4,1.43-4,3.75-4.29a28.68,28.68,0,0,0,7.57-1.89,3.55,3.55,0,0,0,1.28-.85V28.25A2.88,2.88,0,0,1,184,31.12H172C172.75,27,173.66,20.05,171.48,19.65Z"/><path class="cls-1" d="M187.68,1.38A25.5,25.5,0,0,0,196.46,4c2.76.35,4.34.93,5.67,3.1a.94.94,0,0,0,1.67-.15A31,31,0,0,1,207.27,0H189.91a2.86,2.86,0,0,0-2.41,1.31Z"/><path class="cls-1" d="M217.47,7.46a2,2,0,0,0-1.55,1.11c-.18.57-.46,1.31-.76,2.12-.45,1.19-.95,2.54-1.27,3.65A14.25,14.25,0,0,1,208,22.6a2.25,2.25,0,0,0-1,1.85v6.67h8.27a2.87,2.87,0,0,0,2.87-2.87V7.15A2.06,2.06,0,0,1,217.47,7.46Z"/><path class="cls-1" d="M202.44,19.65s6.28,0,8.45-10.56a7.62,7.62,0,0,1,5.43-6,2.26,2.26,0,0,1,1.84.33V2.87A2.86,2.86,0,0,0,215.29,0h-1.7c-3,1.92-4.83,6.44-6.41,11-1.12,3.26-2.61,5.2-4.85,5.2-1.29,0-2.3-2.25-2.7-3.44-1.33-4-1.42-4-3.74-4.29a28.68,28.68,0,0,1-7.57-1.89A3.55,3.55,0,0,1,187,5.77V28.25a2.88,2.88,0,0,0,2.87,2.87h12C201.16,27,200.26,20.05,202.44,19.65Z"/><path class="cls-1" d="M248.64,1.38A25.5,25.5,0,0,1,239.86,4c-2.76.35-4.33.93-5.67,3.1a.94.94,0,0,1-1.67-.15A31,31,0,0,0,229.05,0h17.36a2.86,2.86,0,0,1,2.41,1.31Z"/><path class="cls-1" d="M218.85,7.46a2,2,0,0,1,1.55,1.11c.18.57.46,1.31.76,2.12.45,1.19,1,2.54,1.27,3.65a14.22,14.22,0,0,0,5.9,8.26,2.25,2.25,0,0,1,1,1.85v6.67H221a2.87,2.87,0,0,1-2.87-2.87V7.15A2.15,2.15,0,0,0,218.85,7.46Z"/><path class="cls-1" d="M233.88,19.65s-6.28,0-8.44-10.56a7.66,7.66,0,0,0-5.44-6,2.26,2.26,0,0,0-1.84.33V2.87A2.86,2.86,0,0,1,221,0h1.7c3,1.92,4.84,6.44,6.41,11,1.12,3.26,2.61,5.2,4.85,5.2,1.29,0,2.3-2.25,2.7-3.44,1.33-4,1.42-4,3.75-4.29A28.86,28.86,0,0,0,248,6.62a3.51,3.51,0,0,0,1.27-.85V28.25a2.87,2.87,0,0,1-2.87,2.87h-12C235.16,27,236.06,20.05,233.88,19.65Z"/><path class="cls-1" d="M.64,61.49a25.52,25.52,0,0,1,8.77-2.6c2.77-.35,4.34-.94,5.68-3.1a.93.93,0,0,1,1.66.15,31.18,31.18,0,0,0,3.48,6.92H2.87A2.86,2.86,0,0,1,.46,61.55.64.64,0,0,0,.64,61.49Z"/><path class="cls-1" d="M30.43,55.4a2,2,0,0,1-1.55-1.1c-.19-.58-.46-1.31-.76-2.12-.45-1.19-.95-2.55-1.28-3.65A14.1,14.1,0,0,0,21,40.27a2.28,2.28,0,0,1-1-1.86V31.75h8.28a2.87,2.87,0,0,1,2.87,2.86V55.72A2,2,0,0,0,30.43,55.4Z"/><path class="cls-1" d="M15.4,43.22s6.27,0,8.44,10.56a7.65,7.65,0,0,0,5.44,6,2.22,2.22,0,0,0,1.84-.34V60a2.87,2.87,0,0,1-2.87,2.86h-1.7c-3-1.91-4.84-6.44-6.41-11-1.12-3.27-2.61-5.2-4.85-5.2-1.29,0-2.3,2.25-2.7,3.43-1.33,4-1.42,4-3.75,4.3a28.34,28.34,0,0,0-7.57,1.88A3.57,3.57,0,0,0,0,57.1V34.61a2.86,2.86,0,0,1,2.87-2.86h12C14.12,35.83,13.22,42.82,15.4,43.22Z"/><path class="cls-1" d="M61.6,61.49a25.5,25.5,0,0,0-8.78-2.6c-2.77-.35-4.34-.94-5.67-3.1a.93.93,0,0,0-1.67.15A30.71,30.71,0,0,1,42,62.86H59.37a2.88,2.88,0,0,0,2.41-1.31A.64.64,0,0,1,61.6,61.49Z"/><path class="cls-1" d="M31.81,55.4a2,2,0,0,0,1.55-1.1c.18-.58.46-1.31.76-2.12.45-1.19,1-2.55,1.27-3.65a14.19,14.19,0,0,1,5.89-8.26,2.28,2.28,0,0,0,1-1.86V31.75H34a2.86,2.86,0,0,0-2.87,2.86V55.72A1.82,1.82,0,0,1,31.81,55.4Z"/><path class="cls-1" d="M46.84,43.22s-6.28,0-8.45,10.56a7.64,7.64,0,0,1-5.43,6,2.22,2.22,0,0,1-1.84-.34V60A2.86,2.86,0,0,0,34,62.86h1.7c3-1.91,4.83-6.44,6.41-11,1.12-3.27,2.6-5.2,4.85-5.2,1.29,0,2.3,2.25,2.7,3.43,1.33,4,1.42,4,3.74,4.3A28.16,28.16,0,0,1,61,56.24a3.7,3.7,0,0,1,1.28.86V34.61a2.87,2.87,0,0,0-2.87-2.86h-12C48.12,35.83,49,42.82,46.84,43.22Z"/><path class="cls-1" d="M63,61.49a25.5,25.5,0,0,1,8.78-2.6c2.77-.35,4.34-.94,5.67-3.1a.93.93,0,0,1,1.67.15,30.71,30.71,0,0,0,3.47,6.92H65.27a2.86,2.86,0,0,1-2.41-1.31A.64.64,0,0,0,63,61.49Z"/><path class="cls-1" d="M92.83,55.4a2,2,0,0,1-1.55-1.1c-.18-.58-.46-1.31-.76-2.12-.45-1.19-1-2.55-1.27-3.65a14.19,14.19,0,0,0-5.89-8.26,2.28,2.28,0,0,1-1-1.86V31.75h8.27a2.86,2.86,0,0,1,2.87,2.86V55.72A1.9,1.9,0,0,0,92.83,55.4Z"/><path class="cls-1" d="M77.8,43.22s6.28,0,8.45,10.56a7.64,7.64,0,0,0,5.43,6,2.22,2.22,0,0,0,1.84-.34V60a2.86,2.86,0,0,1-2.87,2.86H89c-3-1.91-4.83-6.44-6.41-11-1.12-3.27-2.6-5.2-4.85-5.2-1.29,0-2.3,2.25-2.7,3.43-1.33,4-1.42,4-3.74,4.3a28.16,28.16,0,0,0-7.57,1.88,3.7,3.7,0,0,0-1.28.86V34.61a2.87,2.87,0,0,1,2.87-2.86h12C76.52,35.83,75.62,42.82,77.8,43.22Z"/><path class="cls-1" d="M124,61.49a25.52,25.52,0,0,0-8.77-2.6c-2.77-.35-4.34-.94-5.68-3.1a.93.93,0,0,0-1.67.15,30.71,30.71,0,0,1-3.47,6.92h17.36a2.86,2.86,0,0,0,2.41-1.31A.64.64,0,0,1,124,61.49Z"/><path class="cls-1" d="M94.21,55.4a2,2,0,0,0,1.55-1.1c.19-.58.46-1.31.76-2.12.45-1.19,1-2.55,1.28-3.65a14.1,14.1,0,0,1,5.89-8.26,2.28,2.28,0,0,0,1-1.86V31.75H96.39a2.87,2.87,0,0,0-2.87,2.86V55.72A2,2,0,0,1,94.21,55.4Z"/><path class="cls-1" d="M109.24,43.22s-6.28,0-8.44,10.56a7.67,7.67,0,0,1-5.44,6,2.22,2.22,0,0,1-1.84-.34V60a2.87,2.87,0,0,0,2.87,2.86h1.7c3-1.91,4.84-6.44,6.41-11,1.12-3.27,2.61-5.2,4.85-5.2,1.29,0,2.3,2.25,2.7,3.43,1.33,4,1.42,4,3.75,4.3a28.34,28.34,0,0,1,7.57,1.88,3.66,3.66,0,0,1,1.27.86V34.61a2.86,2.86,0,0,0-2.87-2.86h-12C110.52,35.83,111.42,42.82,109.24,43.22Z"/><path class="cls-1" d="M125.28,61.49a25.52,25.52,0,0,1,8.77-2.6c2.77-.35,4.34-.94,5.68-3.1a.93.93,0,0,1,1.66.15,31.18,31.18,0,0,0,3.48,6.92H127.51a2.86,2.86,0,0,1-2.41-1.31A.64.64,0,0,0,125.28,61.49Z"/><path class="cls-1" d="M155.07,55.4a2,2,0,0,1-1.55-1.1c-.19-.58-.46-1.31-.76-2.12-.45-1.19-.95-2.55-1.28-3.65a14.1,14.1,0,0,0-5.89-8.26,2.28,2.28,0,0,1-1-1.86V31.75h8.28a2.87,2.87,0,0,1,2.87,2.86V55.72A2,2,0,0,0,155.07,55.4Z"/><path class="cls-1" d="M140,43.22s6.27,0,8.44,10.56a7.65,7.65,0,0,0,5.44,6,2.22,2.22,0,0,0,1.84-.34V60a2.87,2.87,0,0,1-2.87,2.86h-1.7c-3-1.91-4.84-6.44-6.41-11-1.12-3.27-2.61-5.2-4.85-5.2-1.29,0-2.3,2.25-2.7,3.43-1.33,4-1.42,4-3.75,4.3a28.34,28.34,0,0,0-7.57,1.88,3.57,3.57,0,0,0-1.27.86V34.61a2.86,2.86,0,0,1,2.87-2.86h12C138.76,35.83,137.86,42.82,140,43.22Z"/><path class="cls-1" d="M186.24,61.49a25.5,25.5,0,0,0-8.78-2.6c-2.77-.35-4.34-.94-5.67-3.1a.93.93,0,0,0-1.67.15,30.71,30.71,0,0,1-3.47,6.92H184a2.88,2.88,0,0,0,2.41-1.31A.48.48,0,0,1,186.24,61.49Z"/><path class="cls-1" d="M156.45,55.4A2,2,0,0,0,158,54.3c.18-.58.46-1.31.76-2.12.45-1.19,1-2.55,1.27-3.65a14.14,14.14,0,0,1,5.89-8.26,2.28,2.28,0,0,0,1-1.86V31.75h-8.27a2.86,2.86,0,0,0-2.87,2.86V55.72A1.82,1.82,0,0,1,156.45,55.4Z"/><path class="cls-1" d="M171.48,43.22s-6.28,0-8.45,10.56a7.64,7.64,0,0,1-5.43,6,2.22,2.22,0,0,1-1.84-.34V60a2.86,2.86,0,0,0,2.87,2.86h1.7c3-1.91,4.83-6.44,6.41-11,1.12-3.27,2.6-5.2,4.85-5.2,1.29,0,2.3,2.25,2.69,3.43,1.34,4,1.43,4,3.75,4.3a28.16,28.16,0,0,1,7.57,1.88,3.7,3.7,0,0,1,1.28.86V34.61A2.87,2.87,0,0,0,184,31.75H172C172.75,35.83,173.66,42.82,171.48,43.22Z"/><path class="cls-1" d="M187.68,61.49a25.5,25.5,0,0,1,8.78-2.6c2.76-.35,4.34-.94,5.67-3.1a.93.93,0,0,1,1.67.15,30.71,30.71,0,0,0,3.47,6.92H189.91a2.86,2.86,0,0,1-2.41-1.31A.64.64,0,0,0,187.68,61.49Z"/><path class="cls-1" d="M217.47,55.4a2,2,0,0,1-1.55-1.1c-.18-.58-.46-1.31-.76-2.12-.45-1.19-.95-2.55-1.27-3.65A14.19,14.19,0,0,0,208,40.27a2.28,2.28,0,0,1-1-1.86V31.75h8.27a2.86,2.86,0,0,1,2.87,2.86V55.72A1.9,1.9,0,0,0,217.47,55.4Z"/><path class="cls-1" d="M202.44,43.22s6.28,0,8.45,10.56a7.64,7.64,0,0,0,5.43,6,2.22,2.22,0,0,0,1.84-.34V60a2.86,2.86,0,0,1-2.87,2.86h-1.7c-3-1.91-4.83-6.44-6.41-11-1.12-3.27-2.61-5.2-4.85-5.2-1.29,0-2.3,2.25-2.7,3.43-1.33,4-1.42,4-3.74,4.3a28.16,28.16,0,0,0-7.57,1.88,3.7,3.7,0,0,0-1.28.86V34.61a2.87,2.87,0,0,1,2.87-2.86h12C201.16,35.83,200.26,42.82,202.44,43.22Z"/><path class="cls-1" d="M248.64,61.49a25.5,25.5,0,0,0-8.78-2.6c-2.76-.35-4.33-.94-5.67-3.1a.93.93,0,0,0-1.67.15,30.71,30.71,0,0,1-3.47,6.92h17.36a2.86,2.86,0,0,0,2.41-1.31A.64.64,0,0,1,248.64,61.49Z"/><path class="cls-1" d="M218.85,55.4a2,2,0,0,0,1.55-1.1c.18-.58.46-1.31.76-2.12.45-1.19,1-2.55,1.27-3.65a14.15,14.15,0,0,1,5.9-8.26,2.28,2.28,0,0,0,1-1.86V31.75H221a2.86,2.86,0,0,0-2.87,2.86V55.72A2,2,0,0,1,218.85,55.4Z"/><path class="cls-1" d="M233.88,43.22s-6.28,0-8.44,10.56a7.67,7.67,0,0,1-5.44,6,2.22,2.22,0,0,1-1.84-.34V60A2.86,2.86,0,0,0,221,62.86h1.7c3-1.91,4.84-6.44,6.41-11,1.12-3.27,2.61-5.2,4.85-5.2,1.29,0,2.3,2.25,2.7,3.43,1.33,4,1.42,4,3.75,4.3A28.34,28.34,0,0,1,248,56.24a3.66,3.66,0,0,1,1.27.86V34.61a2.86,2.86,0,0,0-2.87-2.86h-12C235.16,35.83,236.06,42.82,233.88,43.22Z"/><path class="cls-1" d="M251.11,1.38A25.5,25.5,0,0,0,259.89,4c2.76.35,4.33.93,5.67,3.1a.94.94,0,0,0,1.67-.15A31,31,0,0,1,270.7,0H253.34a2.86,2.86,0,0,0-2.41,1.31Z"/><path class="cls-1" d="M280.9,7.46a2,2,0,0,0-1.55,1.11c-.18.57-.46,1.31-.76,2.12-.45,1.19-.95,2.54-1.27,3.65a14.22,14.22,0,0,1-5.9,8.26,2.25,2.25,0,0,0-1,1.85v6.67h8.28a2.87,2.87,0,0,0,2.87-2.87V7.15A2.15,2.15,0,0,1,280.9,7.46Z"/><path class="cls-1" d="M265.87,19.65s6.28,0,8.44-10.56a7.66,7.66,0,0,1,5.44-6,2.26,2.26,0,0,1,1.84.33V2.87A2.86,2.86,0,0,0,278.72,0H277c-3,1.92-4.84,6.44-6.41,11-1.12,3.26-2.61,5.2-4.85,5.2-1.29,0-2.3-2.25-2.7-3.44-1.33-4-1.42-4-3.75-4.29a28.86,28.86,0,0,1-7.57-1.89,3.51,3.51,0,0,1-1.27-.85V28.25a2.87,2.87,0,0,0,2.87,2.87h12C264.59,27,263.69,20.05,265.87,19.65Z"/><path class="cls-1" d="M312.07,1.38A25.5,25.5,0,0,1,303.29,4c-2.76.35-4.34.93-5.67,3.1A.94.94,0,0,1,296,6.93,31,31,0,0,0,292.48,0h17.36a2.86,2.86,0,0,1,2.41,1.31Z"/><path class="cls-1" d="M282.28,7.46a2,2,0,0,1,1.55,1.11c.18.57.46,1.31.76,2.12.45,1.19,1,2.54,1.27,3.65a14.25,14.25,0,0,0,5.89,8.26,2.25,2.25,0,0,1,1,1.85v6.67h-8.27a2.87,2.87,0,0,1-2.87-2.87V7.15A2.06,2.06,0,0,0,282.28,7.46Z"/><path class="cls-1" d="M297.31,19.65s-6.28,0-8.45-10.56a7.62,7.62,0,0,0-5.43-6,2.26,2.26,0,0,0-1.84.33V2.87A2.86,2.86,0,0,1,284.46,0h1.7c3,1.92,4.83,6.44,6.41,11,1.12,3.26,2.61,5.2,4.85,5.2,1.29,0,2.3-2.25,2.7-3.44,1.33-4,1.42-4,3.74-4.29a28.68,28.68,0,0,0,7.57-1.89,3.55,3.55,0,0,0,1.28-.85V28.25a2.88,2.88,0,0,1-2.87,2.87h-12C298.59,27,299.49,20.05,297.31,19.65Z"/><path class="cls-1" d="M313.51,1.38A25.5,25.5,0,0,0,322.29,4c2.77.35,4.34.93,5.67,3.1a.94.94,0,0,0,1.67-.15A31,31,0,0,1,333.1,0H315.74a2.88,2.88,0,0,0-2.41,1.31A.75.75,0,0,1,313.51,1.38Z"/><path class="cls-1" d="M343.3,7.46a2,2,0,0,0-1.55,1.11c-.18.57-.46,1.31-.76,2.12-.45,1.19-.95,2.54-1.27,3.65a14.21,14.21,0,0,1-5.89,8.26,2.25,2.25,0,0,0-1,1.85v6.67h8.27A2.87,2.87,0,0,0,344,28.25V7.15A2,2,0,0,1,343.3,7.46Z"/><path class="cls-1" d="M328.27,19.65s6.28,0,8.45-10.56a7.62,7.62,0,0,1,5.43-6,2.26,2.26,0,0,1,1.84.33V2.87A2.86,2.86,0,0,0,341.12,0h-1.7c-3,1.92-4.83,6.44-6.41,11-1.12,3.26-2.6,5.2-4.85,5.2-1.29,0-2.3-2.25-2.69-3.44-1.34-4-1.43-4-3.75-4.29a28.68,28.68,0,0,1-7.57-1.89,3.55,3.55,0,0,1-1.28-.85V28.25a2.88,2.88,0,0,0,2.87,2.87h12C327,27,326.09,20.05,328.27,19.65Z"/><path class="cls-1" d="M374.47,1.38A25.52,25.52,0,0,1,365.7,4c-2.77.35-4.34.93-5.68,3.1a.93.93,0,0,1-1.66-.15A31.46,31.46,0,0,0,354.88,0h17.36a2.86,2.86,0,0,1,2.41,1.31Z"/><path class="cls-1" d="M344.68,7.46a2,2,0,0,1,1.55,1.11c.19.57.46,1.31.76,2.12.45,1.19.95,2.54,1.28,3.65a14.17,14.17,0,0,0,5.89,8.26,2.25,2.25,0,0,1,1,1.85v6.67h-8.28A2.88,2.88,0,0,1,344,28.25V7.15A2.15,2.15,0,0,0,344.68,7.46Z"/><path class="cls-1" d="M359.71,19.65s-6.27,0-8.44-10.56a7.64,7.64,0,0,0-5.44-6,2.26,2.26,0,0,0-1.84.33V2.87A2.87,2.87,0,0,1,346.86,0h1.7c3,1.92,4.84,6.44,6.41,11,1.12,3.26,2.61,5.2,4.85,5.2,1.29,0,2.3-2.25,2.7-3.44,1.33-4,1.42-4,3.75-4.29a28.86,28.86,0,0,0,7.57-1.89,3.42,3.42,0,0,0,1.27-.85V28.25a2.87,2.87,0,0,1-2.87,2.87h-12C361,27,361.89,20.05,359.71,19.65Z"/><path class="cls-1" d="M375.75,1.38A25.52,25.52,0,0,0,384.52,4c2.77.35,4.34.93,5.68,3.1a.94.94,0,0,0,1.67-.15A31,31,0,0,1,395.34,0H378a2.86,2.86,0,0,0-2.41,1.31Z"/><path class="cls-1" d="M405.54,7.46A2,2,0,0,0,404,8.57c-.19.57-.46,1.31-.76,2.12-.45,1.19-1,2.54-1.28,3.65a14.17,14.17,0,0,1-5.89,8.26,2.25,2.25,0,0,0-1,1.85v6.67h8.28a2.88,2.88,0,0,0,2.87-2.87V7.15A2.15,2.15,0,0,1,405.54,7.46Z"/><path class="cls-1" d="M390.51,19.65s6.28,0,8.44-10.56a7.66,7.66,0,0,1,5.44-6,2.26,2.26,0,0,1,1.84.33V2.87A2.87,2.87,0,0,0,403.36,0h-1.7c-3,1.92-4.84,6.44-6.41,11-1.12,3.26-2.61,5.2-4.85,5.2-1.29,0-2.3-2.25-2.7-3.44-1.33-4-1.42-4-3.75-4.29a28.86,28.86,0,0,1-7.57-1.89,3.51,3.51,0,0,1-1.27-.85V28.25A2.87,2.87,0,0,0,378,31.12h12C389.23,27,388.33,20.05,390.51,19.65Z"/><path class="cls-1" d="M436.71,1.38A25.5,25.5,0,0,1,427.93,4c-2.77.35-4.34.93-5.67,3.1a.94.94,0,0,1-1.67-.15A31,31,0,0,0,417.12,0h17.36a2.86,2.86,0,0,1,2.41,1.31Z"/><path class="cls-1" d="M406.92,7.46a2,2,0,0,1,1.55,1.11c.18.57.46,1.31.76,2.12.45,1.19.95,2.54,1.27,3.65a14.25,14.25,0,0,0,5.89,8.26,2.25,2.25,0,0,1,1,1.85v6.67H409.1a2.87,2.87,0,0,1-2.87-2.87V7.15A2.06,2.06,0,0,0,406.92,7.46Z"/><path class="cls-1" d="M422,19.65s-6.28,0-8.45-10.56a7.62,7.62,0,0,0-5.43-6,2.26,2.26,0,0,0-1.84.33V2.87A2.86,2.86,0,0,1,409.1,0h1.7c3,1.92,4.83,6.44,6.41,11,1.12,3.26,2.6,5.2,4.85,5.2,1.29,0,2.3-2.25,2.7-3.44,1.33-4,1.42-4,3.74-4.29a28.68,28.68,0,0,0,7.57-1.89,3.55,3.55,0,0,0,1.28-.85V28.25a2.88,2.88,0,0,1-2.87,2.87h-12C423.23,27,424.13,20.05,422,19.65Z"/><path class="cls-1" d="M438.15,1.38A25.5,25.5,0,0,0,446.93,4c2.77.35,4.34.93,5.67,3.1a.94.94,0,0,0,1.67-.15A31,31,0,0,1,457.74,0H440.38A2.88,2.88,0,0,0,438,1.31Z"/><path class="cls-1" d="M467.94,7.46a2,2,0,0,0-1.55,1.11c-.18.57-.46,1.31-.76,2.12-.45,1.19-.95,2.54-1.27,3.65a14.25,14.25,0,0,1-5.89,8.26,2.25,2.25,0,0,0-1,1.85v6.67h8.27a2.87,2.87,0,0,0,2.87-2.87V7.15A2,2,0,0,1,467.94,7.46Z"/><path class="cls-1" d="M452.91,19.65s6.28,0,8.45-10.56a7.62,7.62,0,0,1,5.43-6,2.26,2.26,0,0,1,1.84.33V2.87A2.86,2.86,0,0,0,465.76,0h-1.7c-3,1.92-4.83,6.44-6.41,11-1.12,3.26-2.6,5.2-4.85,5.2-1.29,0-2.3-2.25-2.7-3.44-1.33-4-1.42-4-3.74-4.29a28.68,28.68,0,0,1-7.57-1.89,3.55,3.55,0,0,1-1.28-.85V28.25a2.88,2.88,0,0,0,2.87,2.87h12C451.63,27,450.73,20.05,452.91,19.65Z"/><path class="cls-1" d="M499.11,1.38A25.52,25.52,0,0,1,490.34,4c-2.77.35-4.34.93-5.68,3.1A.93.93,0,0,1,483,6.93,31.46,31.46,0,0,0,479.52,0h17.36a2.86,2.86,0,0,1,2.41,1.31Z"/><path class="cls-1" d="M469.32,7.46a2,2,0,0,1,1.55,1.11c.19.57.46,1.31.76,2.12.45,1.19.95,2.54,1.28,3.65a14.17,14.17,0,0,0,5.89,8.26,2.25,2.25,0,0,1,1,1.85v6.67H471.5a2.88,2.88,0,0,1-2.87-2.87V7.15A2.15,2.15,0,0,0,469.32,7.46Z"/><path class="cls-1" d="M484.35,19.65s-6.27,0-8.44-10.56a7.64,7.64,0,0,0-5.44-6,2.26,2.26,0,0,0-1.84.33V2.87A2.87,2.87,0,0,1,471.5,0h1.7c3,1.92,4.84,6.44,6.41,11,1.12,3.26,2.61,5.2,4.85,5.2,1.29,0,2.3-2.25,2.7-3.44,1.33-4,1.42-4,3.75-4.29a28.86,28.86,0,0,0,7.57-1.89,3.42,3.42,0,0,0,1.27-.85V28.25a2.87,2.87,0,0,1-2.87,2.87h-12C485.63,27,486.53,20.05,484.35,19.65Z"/><path class="cls-1" d="M251.11,61.49a25.5,25.5,0,0,1,8.78-2.6c2.76-.35,4.33-.94,5.67-3.1a.93.93,0,0,1,1.67.15,30.71,30.71,0,0,0,3.47,6.92H253.34a2.86,2.86,0,0,1-2.41-1.31A.64.64,0,0,0,251.11,61.49Z"/><path class="cls-1" d="M280.9,55.4a2,2,0,0,1-1.55-1.1c-.18-.58-.46-1.31-.76-2.12-.45-1.19-.95-2.55-1.27-3.65a14.15,14.15,0,0,0-5.9-8.26,2.28,2.28,0,0,1-1-1.86V31.75h8.28a2.86,2.86,0,0,1,2.87,2.86V55.72A2,2,0,0,0,280.9,55.4Z"/><path class="cls-1" d="M265.87,43.22s6.28,0,8.44,10.56a7.67,7.67,0,0,0,5.44,6,2.22,2.22,0,0,0,1.84-.34V60a2.86,2.86,0,0,1-2.87,2.86H277c-3-1.91-4.84-6.44-6.41-11-1.12-3.27-2.61-5.2-4.85-5.2-1.29,0-2.3,2.25-2.7,3.43-1.33,4-1.42,4-3.75,4.3a28.34,28.34,0,0,0-7.57,1.88,3.66,3.66,0,0,0-1.27.86V34.61a2.86,2.86,0,0,1,2.87-2.86h12C264.59,35.83,263.69,42.82,265.87,43.22Z"/><path class="cls-1" d="M312.07,61.49a25.5,25.5,0,0,0-8.78-2.6c-2.76-.35-4.34-.94-5.67-3.1a.93.93,0,0,0-1.67.15,30.71,30.71,0,0,1-3.47,6.92h17.36a2.86,2.86,0,0,0,2.41-1.31A.64.64,0,0,1,312.07,61.49Z"/><path class="cls-1" d="M282.28,55.4a2,2,0,0,0,1.55-1.1c.18-.58.46-1.31.76-2.12.45-1.19,1-2.55,1.27-3.65a14.19,14.19,0,0,1,5.89-8.26,2.28,2.28,0,0,0,1-1.86V31.75h-8.27a2.86,2.86,0,0,0-2.87,2.86V55.72A1.9,1.9,0,0,1,282.28,55.4Z"/><path class="cls-1" d="M297.31,43.22s-6.28,0-8.45,10.56a7.64,7.64,0,0,1-5.43,6,2.22,2.22,0,0,1-1.84-.34V60a2.86,2.86,0,0,0,2.87,2.86h1.7c3-1.91,4.83-6.44,6.41-11,1.12-3.27,2.61-5.2,4.85-5.2,1.29,0,2.3,2.25,2.7,3.43,1.33,4,1.42,4,3.74,4.3a28.16,28.16,0,0,1,7.57,1.88,3.7,3.7,0,0,1,1.28.86V34.61a2.87,2.87,0,0,0-2.87-2.86h-12C298.59,35.83,299.49,42.82,297.31,43.22Z"/><path class="cls-1" d="M313.51,61.49a25.5,25.5,0,0,1,8.78-2.6c2.77-.35,4.34-.94,5.67-3.1a.93.93,0,0,1,1.67.15,30.71,30.71,0,0,0,3.47,6.92H315.74a2.88,2.88,0,0,1-2.41-1.31A.48.48,0,0,0,313.51,61.49Z"/><path class="cls-1" d="M343.3,55.4a2,2,0,0,1-1.55-1.1c-.18-.58-.46-1.31-.76-2.12-.45-1.19-.95-2.55-1.27-3.65a14.14,14.14,0,0,0-5.89-8.26,2.28,2.28,0,0,1-1-1.86V31.75h8.27A2.86,2.86,0,0,1,344,34.61V55.72A1.82,1.82,0,0,0,343.3,55.4Z"/><path class="cls-1" d="M328.27,43.22s6.28,0,8.45,10.56a7.64,7.64,0,0,0,5.43,6,2.22,2.22,0,0,0,1.84-.34V60a2.86,2.86,0,0,1-2.87,2.86h-1.7c-3-1.91-4.83-6.44-6.41-11-1.12-3.27-2.6-5.2-4.85-5.2-1.29,0-2.3,2.25-2.69,3.43-1.34,4-1.43,4-3.75,4.3a28.16,28.16,0,0,0-7.57,1.88,3.7,3.7,0,0,0-1.28.86V34.61a2.87,2.87,0,0,1,2.87-2.86h12C327,35.83,326.09,42.82,328.27,43.22Z"/><path class="cls-1" d="M374.47,61.49a25.52,25.52,0,0,0-8.77-2.6c-2.77-.35-4.34-.94-5.68-3.1a.93.93,0,0,0-1.66.15,31.18,31.18,0,0,1-3.48,6.92h17.36a2.86,2.86,0,0,0,2.41-1.31A.64.64,0,0,1,374.47,61.49Z"/><path class="cls-1" d="M344.68,55.4a2,2,0,0,0,1.55-1.1c.19-.58.46-1.31.76-2.12.45-1.19.95-2.55,1.28-3.65a14.1,14.1,0,0,1,5.89-8.26,2.28,2.28,0,0,0,1-1.86V31.75h-8.28A2.87,2.87,0,0,0,344,34.61V55.72A2,2,0,0,1,344.68,55.4Z"/><path class="cls-1" d="M359.71,43.22s-6.27,0-8.44,10.56a7.65,7.65,0,0,1-5.44,6,2.22,2.22,0,0,1-1.84-.34V60a2.87,2.87,0,0,0,2.87,2.86h1.7c3-1.91,4.84-6.44,6.41-11,1.12-3.27,2.61-5.2,4.85-5.2,1.29,0,2.3,2.25,2.7,3.43,1.33,4,1.42,4,3.75,4.3a28.34,28.34,0,0,1,7.57,1.88,3.57,3.57,0,0,1,1.27.86V34.61a2.86,2.86,0,0,0-2.87-2.86h-12C361,35.83,361.89,42.82,359.71,43.22Z"/><path class="cls-1" d="M375.75,61.49a25.52,25.52,0,0,1,8.77-2.6c2.77-.35,4.34-.94,5.68-3.1a.93.93,0,0,1,1.67.15,30.71,30.71,0,0,0,3.47,6.92H378a2.86,2.86,0,0,1-2.41-1.31A.64.64,0,0,0,375.75,61.49Z"/><path class="cls-1" d="M405.54,55.4A2,2,0,0,1,404,54.3c-.19-.58-.46-1.31-.76-2.12-.45-1.19-1-2.55-1.28-3.65a14.1,14.1,0,0,0-5.89-8.26,2.28,2.28,0,0,1-1-1.86V31.75h8.28a2.87,2.87,0,0,1,2.87,2.86V55.72A2,2,0,0,0,405.54,55.4Z"/><path class="cls-1" d="M390.51,43.22s6.28,0,8.44,10.56a7.67,7.67,0,0,0,5.44,6,2.22,2.22,0,0,0,1.84-.34V60a2.87,2.87,0,0,1-2.87,2.86h-1.7c-3-1.91-4.84-6.44-6.41-11-1.12-3.27-2.61-5.2-4.85-5.2-1.29,0-2.3,2.25-2.7,3.43-1.33,4-1.42,4-3.75,4.3a28.34,28.34,0,0,0-7.57,1.88,3.66,3.66,0,0,0-1.27.86V34.61A2.86,2.86,0,0,1,378,31.75h12C389.23,35.83,388.33,42.82,390.51,43.22Z"/><path class="cls-1" d="M436.71,61.49a25.5,25.5,0,0,0-8.78-2.6c-2.77-.35-4.34-.94-5.67-3.1a.93.93,0,0,0-1.67.15,30.71,30.71,0,0,1-3.47,6.92h17.36a2.86,2.86,0,0,0,2.41-1.31A.64.64,0,0,1,436.71,61.49Z"/><path class="cls-1" d="M406.92,55.4a2,2,0,0,0,1.55-1.1c.18-.58.46-1.31.76-2.12.45-1.19.95-2.55,1.27-3.65a14.19,14.19,0,0,1,5.89-8.26,2.28,2.28,0,0,0,1-1.86V31.75H409.1a2.86,2.86,0,0,0-2.87,2.86V55.72A1.9,1.9,0,0,1,406.92,55.4Z"/><path class="cls-1" d="M422,43.22s-6.28,0-8.45,10.56a7.64,7.64,0,0,1-5.43,6,2.22,2.22,0,0,1-1.84-.34V60a2.86,2.86,0,0,0,2.87,2.86h1.7c3-1.91,4.83-6.44,6.41-11,1.12-3.27,2.6-5.2,4.85-5.2,1.29,0,2.3,2.25,2.7,3.43,1.33,4,1.42,4,3.74,4.3a28.16,28.16,0,0,1,7.57,1.88,3.7,3.7,0,0,1,1.28.86V34.61a2.87,2.87,0,0,0-2.87-2.86h-12C423.23,35.83,424.13,42.82,422,43.22Z"/><path class="cls-1" d="M438.15,61.49a25.5,25.5,0,0,1,8.78-2.6c2.77-.35,4.34-.94,5.67-3.1a.93.93,0,0,1,1.67.15,30.71,30.71,0,0,0,3.47,6.92H440.38A2.88,2.88,0,0,1,438,61.55Z"/><path class="cls-1" d="M467.94,55.4a2,2,0,0,1-1.55-1.1c-.18-.58-.46-1.31-.76-2.12-.45-1.19-.95-2.55-1.27-3.65a14.19,14.19,0,0,0-5.89-8.26,2.28,2.28,0,0,1-1-1.86V31.75h8.27a2.86,2.86,0,0,1,2.87,2.86V55.72A1.82,1.82,0,0,0,467.94,55.4Z"/><path class="cls-1" d="M452.91,43.22s6.28,0,8.45,10.56a7.64,7.64,0,0,0,5.43,6,2.22,2.22,0,0,0,1.84-.34V60a2.86,2.86,0,0,1-2.87,2.86h-1.7c-3-1.91-4.83-6.44-6.41-11-1.12-3.27-2.6-5.2-4.85-5.2-1.29,0-2.3,2.25-2.7,3.43-1.33,4-1.42,4-3.74,4.3a28.16,28.16,0,0,0-7.57,1.88,3.7,3.7,0,0,0-1.28.86V34.61a2.87,2.87,0,0,1,2.87-2.86h12C451.63,35.83,450.73,42.82,452.91,43.22Z"/><path class="cls-1" d="M499.11,61.49a25.52,25.52,0,0,0-8.77-2.6c-2.77-.35-4.34-.94-5.68-3.1a.93.93,0,0,0-1.66.15,31.18,31.18,0,0,1-3.48,6.92h17.36a2.86,2.86,0,0,0,2.41-1.31A.64.64,0,0,1,499.11,61.49Z"/><path class="cls-1" d="M469.32,55.4a2,2,0,0,0,1.55-1.1c.19-.58.46-1.31.76-2.12.45-1.19.95-2.55,1.28-3.65a14.1,14.1,0,0,1,5.89-8.26,2.28,2.28,0,0,0,1-1.86V31.75H471.5a2.87,2.87,0,0,0-2.87,2.86V55.72A2,2,0,0,1,469.32,55.4Z"/><path class="cls-1" d="M484.35,43.22s-6.27,0-8.44,10.56a7.65,7.65,0,0,1-5.44,6,2.22,2.22,0,0,1-1.84-.34V60a2.87,2.87,0,0,0,2.87,2.86h1.7c3-1.91,4.84-6.44,6.41-11,1.12-3.27,2.61-5.2,4.85-5.2,1.29,0,2.3,2.25,2.7,3.43,1.33,4,1.42,4,3.75,4.3a28.34,28.34,0,0,1,7.57,1.88,3.57,3.57,0,0,1,1.27.86V34.61a2.86,2.86,0,0,0-2.87-2.86h-12C485.63,35.83,486.53,42.82,484.35,43.22Z"/></g></g></svg>